<svg enable-background="new 0 0 128 128" viewBox="0 0 128 128" xmlns="http://www.w3.org/2000/svg" xmlns:xlink="http://www.w3.org/1999/xlink"><linearGradient id="a"><stop offset="0" stop-color="#43a047"/><stop offset=".9992" stop-color="#66bb6a"/></linearGradient><linearGradient id="b" gradientTransform="matrix(.9107 .4132 -.4132 .9107 35.127 -35.955)" gradientUnits="userSpaceOnUse" x1="41.675" x2="41.675" xlink:href="#a" y1="37.183" y2="37.183"/><linearGradient id="c" gradientTransform="matrix(.9107 .4132 -.4132 .9107 35.127 -35.955)" gradientUnits="userSpaceOnUse" x1="56.665" x2="56.665" xlink:href="#a" y1="125.3" y2="37.567"/><path d="m12.7 31.78c-2.69-.28-7.75-2.06-8.69 1.89-.64 3.5 5 7.67 8.82 8.09-1.92.78-3.01 3.65-2.07 5.73 1.99 4.7 8.4 5.45 12.49 3.88-3.17 3.43.64 8.04 4.26 9.02s8.32-2.17 10.65-4.48c0 0 7.33-7.41.81-9.57-11.2-3.71-13.53-16.01-19.19-23.18-2.22-2.84-9.14-7.17-12.54-3.05-2.93 3.89 2.96 9.2 5.46 11.67z" fill="#cfd8dc"/><path d="m10.96 20.4c2.56 0 5.94 2.32 7.25 3.98 1.64 2.08 3.01 4.68 4.47 7.44 3.36 6.37 7.17 13.59 15.66 16.4.77.26 1.21.57 1.3.95.3 1.24-1.49 3.89-2.89 5.31-2.04 2.03-5.37 4.09-7.79 4.09-.33 0-.64-.04-.92-.11-1.7-.46-3.43-2.05-3.86-3.55-.24-.83-.06-1.52.55-2.19.63-.68.71-1.71.18-2.48-.38-.56-1.01-.88-1.66-.88-.24 0-.48.04-.72.13-1.02.39-2.26.61-3.49.61-1.17 0-5.11-.25-6.44-3.4-.01-.02-.01-.03-.02-.05-.23-.52-.22-1.25.04-1.91.22-.55.59-.99.96-1.14.85-.35 1.35-1.22 1.23-2.13-.13-.91-.85-1.61-1.77-1.71-2.06-.22-4.97-1.97-6.35-3.82-.53-.72-.8-1.4-.73-1.88.11-.47.29-.93 1.8-.93.92 0 2.01.19 2.97.36.62.11 1.21.21 1.76.27.07.01.14.01.21.01.77 0 1.47-.44 1.81-1.15.36-.77.2-1.68-.4-2.28l-.49-.48c-2.09-2.04-6.43-6.27-4.8-8.53.54-.63 1.22-.93 2.14-.93m0-2c-1.4 0-2.71.48-3.72 1.7-2.93 3.9 2.95 9.2 5.46 11.67-1.33-.14-3.23-.64-4.94-.64-1.75 0-3.28.53-3.76 2.53-.64 3.5 5 7.67 8.82 8.09-1.92.78-3.01 3.65-2.07 5.73 1.38 3.26 4.9 4.62 8.29 4.62 1.49 0 2.95-.26 4.2-.74-3.17 3.43.64 8.04 4.26 9.02.47.13.95.18 1.45.18 3.35 0 7.17-2.65 9.2-4.67 0 0 7.33-7.41.81-9.57-11.2-3.71-13.53-16.01-19.19-23.18-1.56-1.99-5.46-4.74-8.81-4.74z" fill="#424242" opacity=".2"/><path d="m57.68 15.11.07.03" fill="url(#b)"/><path d="m70.82 75.78c10.68-13.43 23.21-25.84 22.08-44.73l-.08-.04-40.32-18.3c-1.17-.53-2.52.31-2.53 1.6-.07 12.82-6.82 22.98-14.42 32.54-10.46 13.15-22.65 25.46-22.09 43.7-.04.71.35 1.41 1.04 1.73h.01c5.33 2.42 31.07 14.1 39.34 17.85 1.56.71 2.49 1.13 2.56 1.16l.01.01c-.88-14.41 6.25-25.27 14.4-35.52z" fill="url(#c)"/><path d="m63.3 23.2 19.09 8.66c-1.08 3.94.55 8.17 4.02 10.36-2.95 9.85-9.75 18.17-16.33 26.22l-.07.08c-1.27 1.56-2.59 3.17-3.86 4.77-5.27 6.62-10.47 13.91-13.07 22.42-.59-.12-1.18-.17-1.79-.17-3.16 0-6.08 1.6-7.79 4.19l-19.09-8.66c.67-2.44.32-5.07-1.01-7.28-.06-.09-.12-.19-.18-.28l-.05-.08c-.07-.1-.14-.2-.21-.3-.08-.11-.17-.22-.25-.33-.08-.1-.17-.21-.29-.34-.08-.09-.15-.18-.23-.26-.15-.16-.31-.31-.47-.46-.08-.07-.16-.14-.28-.24-.14-.12-.28-.23-.42-.34-.09-.07-.18-.13-.28-.2-.14-.1-.29-.2-.48-.31-.08-.05-.16-.1-.24-.14-.01-.01-.03-.01-.04-.02 2.96-9.82 9.74-18.12 16.31-26.16l.07-.08c1.27-1.56 2.59-3.17 3.86-4.77 5.24-6.59 10.42-13.84 13.03-22.35.74.19 1.5.28 2.27.28 3.16-.04 6.08-1.64 7.78-4.21m-.62-1.9c-1.31 2.9-4.17 4.61-7.15 4.61-.92 0-1.86-.16-2.77-.51v.01c-.16-.06-.32-.12-.48-.19l-.01.02c-2.33 8.73-7.51 16.17-13.19 23.3-1.29 1.62-2.6 3.23-3.92 4.83-7.05 8.62-14.08 17.25-16.91 27.82l-.03.05c.01 0 .01 0 .02.01.14.06.29.12.44.18.03.01.05.03.08.04.19.09.37.18.55.28.08.04.15.09.23.14.13.08.25.16.37.24.08.05.16.11.23.17.12.09.24.19.36.29.08.07.16.13.24.2.14.13.27.26.4.39.08.08.15.16.22.25s.15.17.22.26.14.19.21.28l.18.27c.06.1.13.19.19.29 1.29 2.14 1.54 4.86.43 7.3l21.56 9.78c1.32-2.9 4.17-4.61 7.16-4.61.93 0 1.87.17 2.79.51l.03-.04v-.01c2.34-8.71 7.52-16.13 13.19-23.26 1.29-1.62 2.6-3.23 3.92-4.83 7.05-8.62 14.08-17.25 16.91-27.82.01-.02.01-.04.02-.06-3.95-1.79-5.7-6.45-3.91-10.4z" fill="#2e7d32"/><g fill="#fff"><path d="m46.01 77.77c-.82-.37-1.65-.4-2.48-.08s-1.78 1.06-2.86 2.23c-1.45 1.64-2.84 2.69-4.17 3.14s-2.72.35-4.16-.31c-1.47-.67-2.48-1.64-3.03-2.92s-.58-2.71-.08-4.29l-2.32-1.05c-.34-.16-.5-.56-.34-.91l.34-.76c.16-.34.56-.5.91-.34l2.33 1.06c.89-1.41 2.05-2.3 3.49-2.65 1.29-.32 2.73-.16 4.34.47.31.12.45.49.31.8l-.63 1.38c-.13.29-.47.42-.77.31-1.06-.39-2.02-.47-2.89-.25-1.02.26-1.76.9-2.22 1.92-.48 1.07-.58 2.01-.28 2.82s.94 1.45 1.92 1.89c.92.42 1.78.45 2.59.1s1.75-1.11 2.82-2.27c1.06-1.16 2.04-2.01 2.92-2.53s1.76-.81 2.63-.85 1.78.15 2.73.58c1.51.69 2.53 1.69 3.04 3.02s.48 2.85-.1 4.57l1.94.88c.34.16.5.56.34.91l-.34.74c-.16.34-.56.5-.91.34l-1.94-.88c-.91 1.6-2.09 2.63-3.56 3.11-1.3.42-2.73.34-4.28-.25-.32-.12-.45-.49-.32-.8l.63-1.4c.13-.28.45-.43.73-.32 1.04.38 1.99.42 2.82.12.97-.35 1.72-1.12 2.27-2.32.53-1.17.67-2.22.41-3.15-.24-.93-.86-1.62-1.83-2.06z"/><path d="m50.61 83.11-1.47 1.74-19.85-9.28-.67-.31 1.53-1.72 19.88 9.31z"/></g><g fill="#2e7d32"><circle cx="61.79" cy="48.55" opacity=".5" r="13.59"/><path d="m35.54 46.86c4.28-5.38 8.29-10.95 10.99-17.07-2.7 6.11-6.7 11.66-10.97 17.04-6.68 8.4-14.07 16.46-18.4 25.93 4.32-9.47 11.71-17.51 18.38-25.9z"/><path d="m92.76 31.02-36.55-16.58 36.46 16.54z"/><path d="m77.28 78.63c10.44-13.13 22.62-25.21 22.11-43.39.04-.71-.35-1.41-1.04-1.72-.01 0-.02 0-.02-.01l-5.42-2.46c1.13 18.88-11.4 31.3-22.08 44.73-8.15 10.24-15.28 21.11-14.42 35.52 1.51.68 2.82 1.28 3.85 1.75 1.17.53 2.52-.3 2.53-1.59.13-13.06 6.87-23.25 14.49-32.83z"/></g><path d="m36.88 45.16c-.46.6-.9 1.15-1.36 1.73-3 3.77-6.26 7.72-9.1 11.28l42.93 19.48c.48-.62.97-1.25 1.47-1.87 2.97-3.73 6.08-7.39 9-11.13z" fill="#ffecb3"/><path d="m79.84 64.64c-2.93 3.74-6.04 7.4-9.01 11.14-.49.62-.98 1.24-1.46 1.87l4.93 4.85c.97-1.3 1.97-2.59 2.99-3.87 2.45-3.08 5-6.11 7.46-9.17z" fill="#ffecb3"/><path d="m79.84 64.64c-2.93 3.74-6.04 7.4-9.01 11.14-.49.62-.98 1.24-1.46 1.87l4.93 4.85c.97-1.3 1.97-2.59 2.99-3.87 2.45-3.08 5-6.11 7.46-9.17z" fill="#ffb74d" opacity=".5"/><path d="m51.96 14.67 40.06 18.18h.01c.01.01.03.01.04.02l5.31 2.41v.01c.43 15.1-8.33 25.76-17.59 37.05-1.35 1.64-2.74 3.34-4.09 5.03-7.09 8.91-14.65 19.58-14.92 33.71l-3.57-1.62-1.46-.66-1.1-.5-39.2-17.78v-.02c-.47-15.28 8.4-26.13 17.79-37.62 1.27-1.56 2.59-3.17 3.87-4.77 7.08-8.92 14.65-19.58 14.85-33.44m-.21-2.11c-.94 0-1.78.74-1.79 1.76-.07 12.82-6.82 22.98-14.42 32.54-10.46 13.15-22.65 25.46-22.09 43.7-.04.71.35 1.41 1.04 1.73h.01c5.33 2.42 31.07 14.1 39.34 17.85 1.56.71 2.49 1.13 2.56 1.16l.01.01c1.51.68 2.82 1.28 3.85 1.75.24.11.5.16.74.16.93 0 1.78-.73 1.79-1.75.14-13.06 6.87-23.25 14.49-32.83 10.44-13.14 22.62-25.22 22.11-43.4.04-.71-.35-1.41-1.04-1.72-.01 0-.02 0-.02-.01l-5.42-2.46-.08-.04-40.32-18.3c-.26-.1-.51-.15-.76-.15z" fill="#424242" opacity=".2"/><path d="m123.92 74.09c.87-5.28-6.95-7.63-10.55-7.43-9.12.47-19.91 6.81-30.08.83-5.92-3.48-6.67 6.91-6.67 6.91-.21 3.28.51 8.89 3.64 10.97 3.12 2.08 9.1 1.9 9.59-2.74 1.51 4.11 6.3 8.44 11.15 6.84 2.18-.66 3.62-3.37 2.94-5.33 2.83 2.61 9.69 4.1 11.9 1.31 2.35-3.3-2.32-5.94-4.3-7.78 3.51.26 11.38 1.19 12.38-3.58z" fill="#cfd8dc"/><path d="m113.81 68.65c2.42 0 5.97 1.1 7.48 2.89.58.68.79 1.37.67 2.18-.34 1.46-2.31 2.2-5.86 2.2-1.34 0-2.66-.11-3.72-.19l-.68-.05c-.05 0-.1-.01-.15-.01-.79 0-1.51.47-1.83 1.2-.34.78-.15 1.69.47 2.27.4.37.87.75 1.36 1.14 2.95 2.37 3.24 3.16 2.71 3.97-.38.44-1.29.7-2.44.7-2.26 0-5.12-1-6.51-2.28-.38-.35-.87-.53-1.35-.53-.38 0-.76.11-1.09.33-.77.5-1.09 1.46-.8 2.33.13.38.04.94-.23 1.47-.32.63-.86 1.12-1.4 1.29-.02 0-.03.01-.05.02-.48.16-.98.24-1.48.24-3.09 0-6.13-3.05-7.16-5.87-.29-.79-1.05-1.31-1.88-1.31-.08 0-.16 0-.25.02-.92.11-1.64.85-1.74 1.77-.2 1.84-1.84 2.22-3.17 2.22-1.2 0-2.44-.35-3.32-.94-2.08-1.38-2.97-5.76-2.75-9.15.18-2.41 1.19-5.77 2.43-5.77.22 0 .61.08 1.23.44 3.24 1.91 6.77 2.83 10.8 2.83 4.09 0 8.04-.94 11.86-1.85 3.03-.72 5.9-1.4 8.55-1.54.08-.02.18-.02.3-.02m0-2c-.15 0-.29 0-.43.01-6.23.32-13.24 3.38-20.3 3.38-3.27 0-6.56-.66-9.78-2.56-.85-.5-1.59-.71-2.24-.71-3.88 0-4.43 7.63-4.43 7.63-.21 3.28.51 8.89 3.64 10.97 1.21.8 2.85 1.27 4.43 1.27 2.5 0 4.86-1.17 5.16-4.01 1.29 3.51 4.98 7.18 9.04 7.18.69 0 1.4-.11 2.11-.34 2.18-.66 3.62-3.37 2.94-5.33 1.76 1.62 5.08 2.81 7.86 2.81 1.7 0 3.2-.44 4.03-1.5 2.35-3.3-2.32-5.94-4.3-7.78 1.17.09 2.82.25 4.55.25 3.44 0 7.16-.65 7.83-3.83.84-5.08-6.36-7.44-10.11-7.44z" fill="#424242" opacity=".2"/></svg>